<?xml version="1.0" encoding="iso-8859-1"?>
<!-- Generator: Adobe Illustrator 19.0.0, SVG Export Plug-In . SVG Version: 6.00 Build 0)  -->
<svg version="1.1" id="Capa_1" xmlns="http://www.w3.org/2000/svg" xmlns:xlink="http://www.w3.org/1999/xlink" x="0px" y="0px"
	 viewBox="0 0 512 512" style="enable-background:new 0 0 512 512;" xml:space="preserve">
<g>
	<path style="fill:#F29C1F;" d="M428.579,211.244c74.593-11.123,74.593-78.83,74.593-78.83H476.69
		c44.138-35.31,26.483-79.448,26.483-79.448c-44.138,61.793-105.931,52.966-105.931,52.966H114.759c0,0-61.793,8.828-105.931-52.966
		c0,0-17.655,44.138,26.483,79.448H8.828c0,0,0,68.149,75.299,78.919L428.579,211.244z"/>
	<path style="fill:#F0C419;" d="M394.946,231.018c7.396-20.281,11.162-41.706,11.123-63.294C406.069,75.123,338.891,0,256,0
		S105.931,75.123,105.931,167.724c-0.055,21.018,3.499,41.889,10.505,61.705l-10.505,53.054h300.139L394.946,231.018z"/>
	<path style="fill:#D1D4D1;" d="M423.752,197.539l-70.451,81.886l-96.906-48.453l-96.907,48.453l-70.451-81.886
		c-15.817,40.045-24.761,82.472-26.455,125.494C62.582,427.4,149.313,512,256.395,512s193.812-84.6,193.812-188.967
		C448.512,280.011,439.568,237.584,423.752,197.539z"/>
	<polygon style="fill:#E57E25;" points="317.793,167.724 256,203.034 194.207,167.724 256,150.069 	"/>
	<polygon style="fill:#F29C1F;" points="317.793,167.724 256,150.069 194.207,167.724 256,105.931 	"/>
	<g>
		<path style="fill:#ECF0F1;" d="M246.908,115.023c0.179-1.553,0.267-3.115,0.265-4.679c0-21.939-17.785-39.724-39.724-39.724
			s-39.724,17.785-39.724,39.724s17.785,39.724,39.724,39.724c1.563,0.002,3.126-0.086,4.679-0.265"/>
		<path style="fill:#ECF0F1;" d="M299.873,149.804c1.553,0.179,3.115,0.267,4.679,0.265c21.939,0,39.724-17.785,39.724-39.724
			s-17.785-39.724-39.724-39.724c-21.939,0-39.724,17.785-39.724,39.724c-0.002,1.563,0.086,3.126,0.265,4.679"/>
	</g>
	<g>
		<g>
			<path style="fill:#2C2F38;" d="M203.034,123.586c-0.593-0.016-1.183-0.075-1.767-0.177c-0.552-0.098-1.086-0.277-1.586-0.53
				c-0.565-0.194-1.101-0.462-1.595-0.797c-0.44-0.35-0.879-0.703-1.319-1.056c-3.414-3.481-3.414-9.054,0-12.534l1.319-1.06
				c0.494-0.335,1.03-0.604,1.595-0.797c0.499-0.254,1.034-0.432,1.587-0.526c1.72-0.361,3.51-0.177,5.121,0.526
				c1.069,0.45,2.055,1.078,2.914,1.858c2.546,2.525,3.312,6.341,1.937,9.653C209.863,121.456,206.621,123.607,203.034,123.586z"/>
			<path style="fill:#2C2F38;" d="M308.966,123.586c-0.592-0.02-1.183-0.079-1.767-0.177c-0.552-0.098-1.086-0.277-1.586-0.53
				c-0.565-0.194-1.101-0.462-1.595-0.797c-0.44-0.35-0.879-0.703-1.319-1.056c-3.414-3.481-3.414-9.054,0-12.534l1.319-1.06
				c0.494-0.335,1.03-0.604,1.595-0.797c0.499-0.254,1.034-0.432,1.587-0.526c3.308-0.694,6.722,0.56,8.794,3.231
				s2.438,6.29,0.942,9.321S312.346,123.604,308.966,123.586z"/>
		</g>
		<g>
			<path style="fill:#A5A5A4;" d="M176.561,414.897c-2.686,0.004-5.228-1.216-6.905-3.315l-35.31-44.138
				c-1.492-1.866-2.164-4.257-1.862-6.626c0.302-2.37,1.553-4.516,3.465-5.947l31.31-23.487l-14.879-20.246
				c-1.897-2.539-2.287-5.901-1.021-8.807c1.266-2.906,3.992-4.911,7.143-5.252c3.151-0.341,6.244,1.034,8.102,3.602l20.06,27.289
				c2.871,3.901,2.059,9.387-1.819,12.289l-31.017,23.272l29.621,37.026c2.118,2.649,2.531,6.277,1.063,9.335
				C183.042,412.948,179.952,414.894,176.561,414.897z"/>
			<path style="fill:#A5A5A4;" d="M353.112,450.207c-3.172,0.006-6.102-1.693-7.672-4.448l-35.31-61.793
				c-2.303-4.028-1.093-9.151,2.767-11.724l46.716-31.147l-14.345-31.53c-1.998-4.433-0.034-9.648,4.392-11.662
				c4.426-2.014,9.648-0.068,11.677,4.351l17.457,38.366c1.794,3.94,0.465,8.599-3.138,11l-46.112,30.741L360.768,437
				c1.56,2.731,1.549,6.085-0.028,8.806C359.163,448.527,356.257,450.203,353.112,450.207z"/>
		</g>
	</g>
</g>
<g>
</g>
<g>
</g>
<g>
</g>
<g>
</g>
<g>
</g>
<g>
</g>
<g>
</g>
<g>
</g>
<g>
</g>
<g>
</g>
<g>
</g>
<g>
</g>
<g>
</g>
<g>
</g>
<g>
</g>
</svg>
