<?xml version="1.0" encoding="iso-8859-1"?>
<!-- Generator: Adobe Illustrator 19.0.0, SVG Export Plug-In . SVG Version: 6.00 Build 0)  -->
<svg version="1.1" id="Capa_1" xmlns="http://www.w3.org/2000/svg" xmlns:xlink="http://www.w3.org/1999/xlink" x="0px" y="0px"
	 viewBox="0 0 506.283 506.283" style="enable-background:new 0 0 506.283 506.283;" xml:space="preserve">
<g>
	<g>
		<g>
			<path style="fill:#E57E25;" d="M279.873,90.946c-2.195,0.001-4.301-0.871-5.853-2.424c-1.552-1.552-2.424-3.658-2.424-5.853
				V41.283c0-4.571,3.706-8.277,8.277-8.277c4.571,0,8.277,3.706,8.277,8.277v41.385c0.001,2.195-0.871,4.301-2.424,5.854
				C284.174,90.074,282.068,90.946,279.873,90.946z"/>
			<path style="fill:#E57E25;" d="M209.525,109.796c-2.961,0.003-5.697-1.575-7.178-4.139l-20.693-35.841
				c-1.509-2.563-1.527-5.74-0.047-8.32c1.48-2.58,4.231-4.168,7.206-4.159s5.716,1.613,7.181,4.202l20.693,35.841
				c1.478,2.56,1.479,5.714,0.002,8.275C215.212,108.215,212.481,109.794,209.525,109.796L209.525,109.796z"/>
			<path style="fill:#E57E25;" d="M158.003,161.302c-1.45,0.001-2.875-0.381-4.131-1.107l-35.841-20.693
				c-3.918-2.305-5.244-7.337-2.972-11.274c2.272-3.937,7.294-5.305,11.249-3.065l35.841,20.693
				c3.247,1.874,4.829,5.695,3.857,9.315C165.034,158.79,161.751,161.306,158.003,161.302L158.003,161.302z"/>
			<path style="fill:#E57E25;" d="M461.971,231.658h-41.386c-4.571,0-8.277-3.706-8.277-8.277c0-4.571,3.706-8.277,8.277-8.277
				h41.386c4.571,0,8.277,3.706,8.277,8.277C470.248,227.952,466.542,231.658,461.971,231.658z"/>
			<path style="fill:#E57E25;" d="M401.743,161.302c-3.748,0.004-7.032-2.511-8.004-6.131c-0.972-3.62,0.61-7.442,3.857-9.315
				l35.841-20.693c2.564-1.517,5.745-1.54,8.331-0.06c2.585,1.481,4.176,4.236,4.165,7.215c-0.011,2.979-1.622,5.723-4.219,7.184
				l-35.841,20.693C404.618,160.921,403.193,161.303,401.743,161.302z"/>
			<path style="fill:#E57E25;" d="M350.221,109.796c-2.956-0.002-5.687-1.58-7.164-4.141c-1.477-2.561-1.476-5.715,0.002-8.275
				l20.693-35.841c1.465-2.588,4.206-4.191,7.18-4.2c2.974-0.009,5.724,1.579,7.204,4.159c1.48,2.58,1.463,5.755-0.045,8.318
				l-20.693,35.841C355.918,108.221,353.181,109.799,350.221,109.796z"/>
		</g>
		<circle style="fill:#F29C1F;" cx="279.176" cy="228.588" r="147.525"/>
	</g>
	<path style="fill:#D1D4D1;" d="M418.023,332.724c-12.763,0.011-25.364,2.853-36.896,8.321c6.748-26.56-2.778-54.603-24.308-71.557
		c-21.53-16.954-51.024-19.64-75.262-6.853c-13.406-37.295-46.833-63.737-86.213-68.197c-39.38-4.459-77.874,13.839-99.279,47.192
		S74.059,317.6,94.517,351.544c-29.15-5.684-59.001,5.66-77.021,29.268c-18.019,23.608-21.087,55.394-7.915,82.013
		c13.172,26.619,40.302,43.462,70.001,43.458h338.441c47.927,0,86.78-38.853,86.78-86.78S465.95,332.724,418.023,332.724z"/>
	<g>
		<path style="fill:#E57E25;" d="M279.873,16.451c-2.191-0.033-4.289-0.89-5.876-2.401c-0.376-0.407-0.709-0.851-0.994-1.326
			c-0.33-0.421-0.582-0.897-0.744-1.406c-0.239-0.47-0.408-0.972-0.501-1.491c-0.094-0.546-0.148-1.099-0.162-1.653
			c0.029-2.192,0.887-4.291,2.401-5.876c3.319-3.064,8.434-3.064,11.753,0c1.511,1.587,2.368,3.685,2.401,5.876
			c-0.013,0.555-0.069,1.107-0.17,1.653c-0.087,0.519-0.253,1.022-0.493,1.491c-0.165,0.508-0.417,0.984-0.744,1.406
			c-0.331,0.497-0.663,0.909-0.994,1.326C284.161,15.56,282.064,16.417,279.873,16.451z"/>
		<path style="fill:#E57E25;" d="M172.27,45.256c-1.076,0.016-2.145-0.181-3.144-0.582c-1.017-0.428-1.944-1.045-2.732-1.819
			c-1.527-1.576-2.387-3.681-2.4-5.876c0.014-2.171,0.876-4.251,2.401-5.796c0.765-0.801,1.698-1.422,2.732-1.819
			c2.546-1.05,5.448-0.763,7.739,0.764s3.672,4.096,3.682,6.85c-0.017,2.194-0.877,4.298-2.401,5.876
			C176.589,44.411,174.471,45.276,172.27,45.256z"/>
		<path style="fill:#E57E25;" d="M93.467,124.054c-2.168-0.018-4.243-0.879-5.788-2.401c-2.437-2.33-3.166-5.931-1.827-9.025
			c0.398-1.034,1.022-1.966,1.827-2.728c1.968-1.916,4.747-2.751,7.445-2.235c0.518,0.088,1.02,0.254,1.487,0.493
			c0.536,0.165,1.042,0.418,1.495,0.748l1.237,0.994c3.201,3.264,3.201,8.489,0,11.753c-0.391,0.356-0.804,0.686-1.237,0.99
			c-0.454,0.33-0.959,0.583-1.495,0.748c-0.468,0.239-0.97,0.406-1.487,0.497C94.577,123.984,94.023,124.039,93.467,124.054z"/>
		<path style="fill:#E57E25;" d="M495.079,231.658c-0.556-0.015-1.109-0.07-1.657-0.166c-0.517-0.092-1.019-0.26-1.487-0.497
			c-0.529-0.182-1.032-0.433-1.495-0.748c-0.412-0.327-0.824-0.659-1.237-0.99c-0.355-0.394-0.687-0.809-0.994-1.241
			c-0.315-0.461-0.565-0.963-0.744-1.491c-0.239-0.47-0.408-0.972-0.501-1.491c-0.09-0.547-0.144-1.099-0.162-1.653
			c0.029-2.192,0.887-4.291,2.401-5.876c0.391-0.357,0.804-0.689,1.237-0.994c0.463-0.314,0.966-0.566,1.495-0.748
			c0.468-0.238,0.97-0.404,1.487-0.493c1.06-0.251,2.165-0.251,3.225,0c0.549,0.076,1.082,0.243,1.576,0.493
			c0.509,0.166,0.984,0.419,1.406,0.748c0.476,0.284,0.92,0.617,1.326,0.994c1.511,1.587,2.368,3.685,2.401,5.876
			c-0.017,0.554-0.073,1.107-0.17,1.653c-0.087,0.519-0.253,1.022-0.493,1.491c-0.182,0.527-0.432,1.029-0.744,1.491
			c-0.331,0.412-0.663,0.824-0.994,1.241c-0.412,0.331-0.833,0.663-1.326,0.99c-0.422,0.329-0.898,0.582-1.406,0.748
			c-0.495,0.25-1.027,0.418-1.576,0.497C496.13,231.587,495.605,231.642,495.079,231.658z"/>
		<path style="fill:#E57E25;" d="M466.271,124.054c-2.202,0.021-4.319-0.844-5.876-2.401c-1.557-1.557-2.422-3.675-2.401-5.876
			c-0.028-0.558,0.029-1.117,0.17-1.657c0.096-0.508,0.234-1.006,0.412-1.491c0.251-0.493,0.493-0.99,0.744-1.487
			c0.334-0.434,0.693-0.849,1.075-1.241c0.331-0.331,0.833-0.663,1.245-0.994c0.431-0.314,0.905-0.566,1.406-0.748
			c0.496-0.239,1.024-0.405,1.568-0.493c1.063-0.251,2.17-0.251,3.233,0c0.547,0.075,1.077,0.242,1.568,0.493
			c0.509,0.164,0.985,0.417,1.406,0.748c0.447,0.289,0.864,0.622,1.245,0.994c0.382,0.392,0.741,0.807,1.075,1.241
			c0.251,0.497,0.501,0.994,0.744,1.487c0.17,0.497,0.331,0.994,0.501,1.491c0.094,0.548,0.148,1.102,0.162,1.657
			C474.516,120.335,470.829,124.023,466.271,124.054L466.271,124.054z"/>
		<path style="fill:#E57E25;" d="M387.476,45.256c-2.199,0.007-4.311-0.856-5.876-2.401c-1.527-1.576-2.387-3.681-2.401-5.876
			c0.013-1.083,0.238-2.152,0.663-3.148c0.401-0.987,0.992-1.886,1.738-2.647c2.383-2.337,5.919-3.049,9.021-1.819
			c1.023,0.419,1.951,1.037,2.732,1.819c0.746,0.761,1.336,1.66,1.738,2.647c0.425,0.996,0.65,2.066,0.663,3.148
			c-0.017,2.194-0.877,4.298-2.401,5.876c-0.803,0.754-1.726,1.369-2.732,1.819C389.621,45.074,388.552,45.272,387.476,45.256z"/>
	</g>
</g>
<g>
</g>
<g>
</g>
<g>
</g>
<g>
</g>
<g>
</g>
<g>
</g>
<g>
</g>
<g>
</g>
<g>
</g>
<g>
</g>
<g>
</g>
<g>
</g>
<g>
</g>
<g>
</g>
<g>
</g>
</svg>
