<?xml version="1.0" encoding="iso-8859-1"?>
<!-- Generator: Adobe Illustrator 19.0.0, SVG Export Plug-In . SVG Version: 6.00 Build 0)  -->
<svg version="1.1" id="Capa_1" xmlns="http://www.w3.org/2000/svg" xmlns:xlink="http://www.w3.org/1999/xlink" x="0px" y="0px"
	 viewBox="0 0 511.998 511.998" style="enable-background:new 0 0 511.998 511.998;" xml:space="preserve">
<g>
	<g>
		<path style="fill:#35495E;" d="M116.839,181.803c-1.709,0.001-3.381-0.506-4.801-1.458l-51.462-34.28
			c-1.799-1.195-3.086-3.019-3.61-5.114L39.611,71.527c-0.752-3.008,0.157-6.189,2.386-8.344s5.438-2.958,8.419-2.106
			c2.981,0.852,5.281,3.231,6.034,6.239l16.542,66.169l48.665,32.42c3.183,2.121,4.601,6.077,3.492,9.737
			C124.039,179.302,120.664,181.805,116.839,181.803L116.839,181.803z"/>
		<path style="fill:#35495E;" d="M13.326,338.438c-2.633,0.001-5.124-1.193-6.772-3.246s-2.276-4.743-1.707-7.313l17.356-78.102
			c0.69-3.107,3.025-5.587,6.085-6.462l59.792-17.097c2.992-0.887,6.229-0.099,8.479,2.063c2.25,2.162,3.166,5.365,2.399,8.39
			c-0.767,3.024-3.098,5.404-6.106,6.233l-54.826,15.678l-16.237,73.059C20.908,335.61,17.391,338.434,13.326,338.438z"/>
		<path style="fill:#35495E;" d="M91.428,511.998c-2.996,0.004-5.782-1.539-7.369-4.08l-43.39-69.424
			c-1.673-2.678-1.759-6.054-0.225-8.814l42.801-76.953c1.798-3.587,5.822-5.471,9.728-4.556s6.674,4.391,6.691,8.404
			c0,1.504-0.376,2.984-1.093,4.305l-40.47,72.758l40.678,65.085c1.67,2.674,1.759,6.044,0.232,8.802S94.581,511.995,91.428,511.998
			z"/>
		<path style="fill:#35495E;" d="M395.16,181.803c-3.825,0.002-7.2-2.5-8.31-6.161c-1.109-3.661,0.309-7.616,3.492-9.737
			l48.665-32.419l16.542-66.169c0.748-3.011,3.048-5.393,6.03-6.247c2.983-0.854,6.194-0.05,8.423,2.108
			c2.229,2.158,3.135,5.342,2.377,8.351l-17.356,69.424c-0.519,2.095-1.804,3.92-3.601,5.114l-51.458,34.28
			C398.543,181.296,396.87,181.803,395.16,181.803z"/>
		<path style="fill:#35495E;" d="M498.668,338.438c-4.065-0.005-7.583-2.829-8.466-6.797l-16.228-73.059l-54.831-15.678
			c-2.985-0.85-5.289-3.23-6.042-6.241c-0.753-3.011,0.159-6.195,2.392-8.351s5.447-2.954,8.43-2.095l59.788,17.097
			c3.059,0.877,5.393,3.356,6.085,6.462l17.356,78.102c0.568,2.571-0.061,5.261-1.71,7.313
			C503.792,337.245,501.301,338.439,498.668,338.438z"/>
		<path style="fill:#35495E;" d="M420.566,511.998c-3.154-0.001-6.058-1.714-7.585-4.473c-1.527-2.759-1.436-6.13,0.238-8.803
			l40.669-65.085l-40.466-72.758c-1.561-2.798-1.458-6.227,0.269-8.926c1.727-2.699,4.797-4.23,7.991-3.985
			c3.194,0.245,5.996,2.226,7.291,5.156l42.576,76.555c1.535,2.76,1.448,6.137-0.229,8.814l-43.39,69.424
			C426.346,510.459,423.561,512.002,420.566,511.998z"/>
		<path style="fill:#35495E;" d="M187.934,66.386c-0.417,0-0.833-0.03-1.246-0.089c-2.278-0.326-4.333-1.545-5.713-3.387
			c-1.38-1.842-1.971-4.157-1.643-6.435l5.195-36.246l-54.212,13.555c-8.12,9.144-19.354,14.939-31.513,16.254
			c-15.378,0.32-30.099-6.231-40.157-17.868c-3.352-3.395-3.335-8.859,0.038-12.232s8.838-3.391,12.232-0.039
			c6.587,7.962,16.325,12.648,26.657,12.826c8.258-1.164,15.767-5.415,21.013-11.898c1.195-1.594,2.902-2.728,4.835-3.212
			l69.424-17.356c2.804-0.7,5.773,0.041,7.918,1.978s3.187,4.814,2.777,7.675l-7.03,49.03
			C195.899,63.209,192.246,66.38,187.934,66.386z"/>
		<path style="fill:#35495E;" d="M313.828,59.619c-4.311-0.007-7.964-3.177-8.576-7.445l-6.076-42.263
			c-0.41-2.861,0.631-5.738,2.777-7.675c2.146-1.936,5.114-2.678,7.918-1.978l69.424,17.356c1.933,0.484,3.64,1.618,4.835,3.212
			c5.279,6.512,12.839,10.769,21.144,11.907c10.285-0.228,19.964-4.911,26.525-12.835c3.393-3.364,8.866-3.352,12.245,0.026
			c3.378,3.378,3.39,8.852,0.026,12.245c-10.054,11.645-24.78,18.197-40.161,17.869c-12.157-1.316-23.389-7.11-31.509-16.254
			L318.192,20.23l4.237,29.479c0.327,2.278-0.264,4.593-1.644,6.435c-1.38,1.842-3.434,3.061-5.712,3.387
			C314.661,59.589,314.245,59.619,313.828,59.619z"/>
	</g>
	<path style="fill:#2C2F38;" d="M151.561,121.489c0-52.72,46.623-95.458,104.136-95.458s104.136,42.738,104.136,95.458H151.561z"/>
	<path style="fill:#E64C3C;" d="M437.934,294.615c0.002,14.083-1.246,28.139-3.732,42.001c-2.369,13.361-5.912,26.486-10.587,39.224
		c-4.499,12.3-10.135,24.153-16.835,35.406c-6.405,10.982-13.844,21.326-22.216,30.894c-8.128,9.379-17.168,17.925-26.988,25.513
		c-9.623,7.49-20.007,13.947-30.98,19.265c-10.906,5.318-22.375,9.394-34.191,12.149c-9.205,2.166-18.586,3.502-28.03,3.992
		c-2.864,0.174-5.727,0.26-8.678,0.26c-2.951,0-5.814-0.087-8.678-0.26c-9.444-0.49-18.825-1.826-28.03-3.992
		c-11.816-2.755-23.285-6.831-34.191-12.149c-10.974-5.318-21.357-11.775-30.98-19.265c-9.82-7.588-18.861-16.135-26.988-25.513
		c-8.372-9.567-15.811-19.912-22.216-30.894c-6.7-11.253-12.336-23.107-16.835-35.406c-4.675-12.738-8.218-25.864-10.587-39.224
		c-4.975-27.809-4.975-56.28,0-84.089c2.369-13.361,5.912-26.486,10.587-39.224c4.517-12.292,10.152-24.144,16.835-35.406
		c6.426-10.968,13.864-21.311,22.216-30.894c8.127-9.379,17.168-17.925,26.988-25.513h203.759
		c9.82,7.588,18.861,16.134,26.988,25.513c8.352,9.583,15.79,19.926,22.216,30.894c6.683,11.262,12.319,23.114,16.835,35.406
		c4.675,12.738,8.218,25.864,10.587,39.224C436.688,266.418,437.936,280.503,437.934,294.615z"/>
	<g>
		<circle style="fill:#2C2F38;" cx="255.697" cy="216.947" r="60.746"/>
		<ellipse style="fill:#2C2F38;" cx="186.273" cy="329.76" rx="26.034" ry="34.712"/>
		
			<ellipse transform="matrix(-0.9708 -0.2398 0.2398 -0.9708 210.1875 509.9734)" style="fill:#2C2F38;" cx="136.119" cy="242.199" rx="21.617" ry="43.234"/>
		
			<ellipse transform="matrix(-0.5 -0.866 0.866 -0.5 -75.0469 811.9317)" style="fill:#2C2F38;" cx="196.862" cy="427.63" rx="30.373" ry="21.695"/>
		<ellipse style="fill:#2C2F38;" cx="325.12" cy="329.76" rx="26.034" ry="34.712"/>
		
			<ellipse transform="matrix(-0.2398 -0.9708 0.9708 -0.2398 230.1463 664.5657)" style="fill:#2C2F38;" cx="375.266" cy="242.175" rx="43.234" ry="21.617"/>
		
			<ellipse transform="matrix(-0.866 -0.5 0.5 -0.866 373.1848 955.2894)" style="fill:#2C2F38;" cx="314.576" cy="427.648" rx="21.695" ry="30.373"/>
	</g>
	<g>
		<path style="fill:#E6E7E8;" d="M194.942,95.455c-3.007-0.002-5.798-1.56-7.377-4.119c-1.579-2.558-1.722-5.752-0.377-8.441
			c6.354-13.021,19.322-21.521,33.797-22.153c4.793-0.023,8.697,3.843,8.72,8.636c0.023,4.793-3.843,8.697-8.636,8.72
			c-7.926,0.597-14.928,5.387-18.356,12.559C201.243,93.602,198.233,95.46,194.942,95.455z"/>
		<path style="fill:#E6E7E8;" d="M316.451,95.455c-3.29,0.005-6.3-1.853-7.771-4.797c-3.363-7.19-10.354-11.995-18.271-12.559
			c-4.793,0-8.678-3.885-8.678-8.678s3.885-8.678,8.678-8.678c14.474,0.631,27.443,9.132,33.797,22.153
			c1.345,2.689,1.202,5.882-0.377,8.441C322.249,93.895,319.458,95.453,316.451,95.455z"/>
	</g>
	<path style="fill:#C03A2B;" d="M264.375,121.489v381.57c-2.864,0.174-5.727,0.26-8.678,0.26c-2.951,0-5.814-0.087-8.678-0.26
		v-381.57H264.375z"/>
</g>
<g>
</g>
<g>
</g>
<g>
</g>
<g>
</g>
<g>
</g>
<g>
</g>
<g>
</g>
<g>
</g>
<g>
</g>
<g>
</g>
<g>
</g>
<g>
</g>
<g>
</g>
<g>
</g>
<g>
</g>
</svg>
