<?xml version="1.0" encoding="iso-8859-1"?>
<!-- Generator: Adobe Illustrator 19.0.0, SVG Export Plug-In . SVG Version: 6.00 Build 0)  -->
<svg version="1.1" id="Capa_1" xmlns="http://www.w3.org/2000/svg" xmlns:xlink="http://www.w3.org/1999/xlink" x="0px" y="0px"
	 viewBox="0 0 512 512" style="enable-background:new 0 0 512 512;" xml:space="preserve">
<g>
	<g>
		<path style="fill:#5E5F62;" d="M299.39,512c-2.302,0.001-4.509-0.914-6.137-2.541c-1.628-1.628-2.542-3.835-2.541-6.137V360.136
			c0-4.793,3.885-8.678,8.678-8.678s8.678,3.885,8.678,8.678v143.186c0.001,2.302-0.914,4.509-2.541,6.137
			C303.899,511.087,301.692,512.001,299.39,512z"/>
		<path style="fill:#5E5F62;" d="M472.949,512c-2.302,0.001-4.509-0.914-6.137-2.541c-1.628-1.628-2.542-3.835-2.541-6.137V367.729
			c0-4.793,3.885-8.678,8.678-8.678c4.793,0,8.678,3.885,8.678,8.678v135.593c0.001,2.302-0.913,4.509-2.541,6.137
			C477.459,511.087,475.251,512.001,472.949,512z"/>
	</g>
	<g>
		<path style="fill:#CB8252;" d="M216.949,266.002v124.941c0.009,39.487,10.489,78.265,30.373,112.38H134.509
			c9.888-16.981,17.503-35.186,22.65-54.151c5.13-18.984,7.727-38.564,7.723-58.229V260.882L216.949,266.002z"/>
		<path style="fill:#CB8252;" d="M273.356,321.085h225.627c4.793,0,8.678,3.885,8.678,8.678v52.068c0,4.793-3.885,8.678-8.678,8.678
			H273.356c-4.793,0-8.678-3.885-8.678-8.678v-52.068C264.678,324.97,268.563,321.085,273.356,321.085z"/>
	</g>
	<g>
		<path style="fill:#D1D4D1;" d="M299.39,364.475c-2.297-0.034-4.497-0.933-6.161-2.517c-0.784-0.83-1.403-1.802-1.822-2.864
			c-0.488-1.029-0.726-2.159-0.694-3.297c0-4.793,3.885-8.678,8.678-8.678s8.678,3.885,8.678,8.678
			c-0.014,1.134-0.25,2.254-0.695,3.297c-0.42,1.062-1.038,2.034-1.822,2.864C303.886,363.54,301.687,364.439,299.39,364.475z"/>
		<path style="fill:#D1D4D1;" d="M472.949,364.475c-2.308,0.022-4.529-0.885-6.161-2.517s-2.539-3.853-2.517-6.161
			c0.014-0.553,0.071-1.104,0.169-1.648c0.084-0.576,0.262-1.134,0.525-1.653c0.188-0.553,0.451-1.077,0.78-1.559
			c0.32-0.455,0.668-0.889,1.042-1.301c3.479-3.212,8.843-3.212,12.322,0c0.347,0.432,0.695,0.864,1.042,1.301
			c0.326,0.484,0.588,1.008,0.78,1.559c0.265,0.518,0.44,1.076,0.517,1.653c0.106,0.544,0.165,1.095,0.178,1.649
			c0.022,2.308-0.885,4.529-2.517,6.161C477.478,363.59,475.258,364.497,472.949,364.475z"/>
	</g>
	<path style="fill:#CB8252;" d="M273.356,425.221h225.627c4.793,0,8.678,3.885,8.678,8.678v17.356c0,4.793-3.885,8.678-8.678,8.678
		H273.356c-4.793,0-8.678-3.885-8.678-8.678v-17.356C264.678,429.106,268.563,425.221,273.356,425.221z"/>
	<path style="fill:#71C285;" d="M394.848,143.187c0,14.96-5.942,29.308-16.521,39.886c-10.578,10.578-24.926,16.521-39.886,16.521
		c-2.526,0.005-5.049-0.169-7.55-0.521c2.124,5.721,3.211,11.774,3.211,17.877c-0.023,28.747-23.321,52.045-52.068,52.068
		c-14.431,0.04-28.219-5.973-38.009-16.575c-7.184,19.344-25.117,32.618-45.716,33.84c-20.599,1.222-39.975-9.84-49.395-28.199
		c-9.042,7.138-20.241,10.993-31.761,10.934c-28.747-0.023-52.045-23.321-52.068-52.068c0-6.102,1.087-12.156,3.211-17.877
		c-2.501,0.352-5.024,0.526-7.55,0.521c-31.153,0-56.407-25.254-56.407-56.407S29.593,86.78,60.746,86.78
		c2.526-0.006,5.049,0.168,7.55,0.521c-2.123-5.721-3.211-11.774-3.211-17.877c0.023-28.747,23.321-52.045,52.068-52.068
		c11.52-0.059,22.719,3.796,31.761,10.934c9.42-18.359,28.796-29.42,49.395-28.199s38.531,14.495,45.716,33.839
		c9.791-10.602,23.578-16.615,38.009-16.575c28.747,0.023,52.045,23.321,52.068,52.068c0,6.102-1.087,12.156-3.211,17.877
		c2.501-0.352,5.024-0.526,7.55-0.521c14.96-0.001,29.308,5.942,39.886,16.521C388.905,113.879,394.848,128.226,394.848,143.187z"/>
	<g>
		<path style="fill:#4C8056;" d="M92.203,197.581c-2.831-0.003-5.482-1.385-7.105-3.704c-1.623-2.319-2.014-5.284-1.047-7.944
			c3.38-9.329,9.409-17.47,17.347-23.424c3.834-2.86,9.259-2.08,12.131,1.745c2.872,3.825,2.109,9.252-1.707,12.136
			c-5.245,3.934-9.23,9.311-11.466,15.475C99.11,195.294,95.852,197.579,92.203,197.581z"/>
		<path style="fill:#4C8056;" d="M235.932,241.229c-2.859-0.005-5.533-1.416-7.15-3.775s-1.969-5.361-0.943-8.03
			c1.418-3.741,2.134-7.711,2.11-11.712c0.009-2.212-0.213-4.419-0.661-6.585c-0.94-4.669,2.059-9.223,6.719-10.204
			c4.66-0.981,9.241,1.977,10.264,6.628c1.928,9.397,1.149,19.147-2.246,28.119C242.738,239.019,239.52,241.229,235.932,241.229z"/>
		<path style="fill:#4C8056;" d="M158.153,245.839c-3.259,0.004-6.245-1.819-7.729-4.72c-3.73-7.237-5.666-15.265-5.644-23.407
			c0.002-3.71,0.4-7.408,1.186-11.034c0.642-3.036,2.856-5.498,5.807-6.456c2.951-0.959,6.189-0.268,8.492,1.811
			c2.303,2.079,3.32,5.23,2.667,8.264c-0.526,2.437-0.793,4.922-0.797,7.415c-0.015,5.388,1.264,10.701,3.729,15.492
			c2.185,4.264,0.501,9.492-3.763,11.678C160.881,245.512,159.527,245.841,158.153,245.839z"/>
		<path style="fill:#4C8056;" d="M306.983,197.581c-3.665-0.003-6.934-2.307-8.17-5.758c-2.453-6.741-6.996-12.522-12.966-16.5
			c-3.951-2.673-5.004-8.033-2.358-12.002c2.646-3.969,7.999-5.058,11.986-2.439c9.07,6.049,15.966,14.843,19.678,25.093
			c0.947,2.658,0.544,5.61-1.08,7.918C312.448,196.2,309.805,197.575,306.983,197.581z"/>
		<path style="fill:#4C8056;" d="M154.441,86.564c-4.092-0.002-7.625-2.866-8.475-6.869c-0.786-3.625-1.184-7.324-1.186-11.034
			c-0.022-8.142,1.914-16.17,5.644-23.407c1.414-2.758,4.192-4.553,7.288-4.707c3.096-0.155,6.039,1.354,7.72,3.958
			c1.682,2.604,1.847,5.907,0.433,8.665c-2.465,4.791-3.744,10.104-3.729,15.492c0.004,2.493,0.271,4.978,0.797,7.415
			c0.549,2.563-0.09,5.236-1.739,7.273C159.544,85.386,157.062,86.568,154.441,86.564L154.441,86.564z"/>
		<path style="fill:#4C8056;" d="M237.788,85.712c-2.617,0.002-5.095-1.176-6.744-3.207c-1.65-2.031-2.295-4.698-1.756-7.259
			c0.448-2.166,0.67-4.373,0.661-6.585c0.024-4.001-0.692-7.971-2.11-11.712c-1.125-2.894-0.618-6.168,1.329-8.585
			s5.038-3.61,8.105-3.128c3.067,0.483,5.642,2.568,6.752,5.467c3.395,8.971,4.174,18.722,2.246,28.119
			C245.426,82.834,241.888,85.707,237.788,85.712z"/>
		<path style="fill:#4C8056;" d="M292.585,125.602c-3.736,0.003-7.054-2.385-8.238-5.928c-1.184-3.543,0.031-7.446,3.018-9.69
			c5.245-3.934,9.23-9.311,11.466-15.475c1.058-2.915,3.591-5.043,6.645-5.583c3.054-0.54,6.163,0.592,8.156,2.967
			s2.566,5.635,1.504,8.548c-3.38,9.329-9.409,17.47-17.347,23.424C296.289,124.993,294.462,125.603,292.585,125.602z"/>
		<path style="fill:#4C8056;" d="M115.551,116.377c-2.014,0-3.965-0.703-5.517-1.987c-5.404-4.5-11.97-7.381-18.941-8.309
			c-3.08-0.39-5.717-2.397-6.915-5.261c-1.198-2.864-0.774-6.15,1.112-8.617s4.945-3.738,8.023-3.334
			c10.218,1.344,19.846,5.553,27.771,12.14c2.826,2.331,3.883,6.186,2.642,9.632C122.486,114.087,119.214,116.383,115.551,116.377
			L115.551,116.377z"/>
	</g>
</g>
<g>
</g>
<g>
</g>
<g>
</g>
<g>
</g>
<g>
</g>
<g>
</g>
<g>
</g>
<g>
</g>
<g>
</g>
<g>
</g>
<g>
</g>
<g>
</g>
<g>
</g>
<g>
</g>
<g>
</g>
</svg>
