<?xml version="1.0" encoding="iso-8859-1"?>
<!-- Generator: Adobe Illustrator 19.0.0, SVG Export Plug-In . SVG Version: 6.00 Build 0)  -->
<svg version="1.1" id="Capa_1" xmlns="http://www.w3.org/2000/svg" xmlns:xlink="http://www.w3.org/1999/xlink" x="0px" y="0px"
	 viewBox="0 0 512 512" style="enable-background:new 0 0 512 512;" xml:space="preserve">
<g>
	<g>
		<path style="fill:#CB8252;" d="M470.069,115.5c-0.97-0.002-1.933-0.172-2.845-0.503c-4.708-1.87-7.13-7.096-5.513-11.897
			l24.276-75.78c0.656-2.298,2.227-4.225,4.344-5.332c2.118-1.107,4.597-1.296,6.858-0.523c4.708,1.87,7.13,7.096,5.513,11.897
			l-24.276,75.78C477.324,112.856,473.943,115.428,470.069,115.5z"/>
		<path style="fill:#CB8252;" d="M423.724,114.759c-5.099-0.239-9.045-4.555-8.828-9.655V27.862
			c-0.299-3.342,1.315-6.567,4.17-8.331s6.461-1.764,9.316,0s4.469,4.988,4.17,8.331v77.241
			C432.77,110.203,428.823,114.52,423.724,114.759z"/>
	</g>
	<path style="fill:#FAC176;" d="M57.026,389.738C23.907,396.252,0.019,425.28,0,459.034v35.31
		c0.029,9.739,7.916,17.627,17.655,17.655h317.793c73.119-0.027,132.387-59.295,132.414-132.414V189.277
		c0-19.854,5.579-39.308,16.102-56.143l26.681-31.352c1.701-2.721,1.791-6.151,0.235-8.958c-1.556-2.807-4.512-4.548-7.721-4.548
		h-79.434l-6.356,0.265c-36.853,3.017-67.96,28.599-78.036,64.177L57.026,389.738z"/>
	<circle style="fill:#CB8252;" cx="185.379" cy="256" r="185.379"/>
	<path style="fill:#805333;" d="M193.082,376.353c-32.923,0.035-64.964-10.647-91.28-30.431
		c-54.591-41.04-65.659-118.524-24.741-173.207c16.03-21.375,39.895-35.506,66.344-39.284c26.449-3.778,53.317,3.106,74.69,19.138
		c17.475,13.105,29.028,32.616,32.117,54.24c3.089,21.624-2.54,43.589-15.647,61.062c-10.765,14.354-26.792,23.843-44.554,26.38
		c-17.762,2.537-35.804-2.087-50.157-12.854c-11.858-8.893-19.698-22.132-21.794-36.806c-2.096-14.673,1.723-29.578,10.617-41.436
		c7.396-9.86,18.406-16.379,30.608-18.121s24.597,1.435,34.456,8.832c3.899,2.926,4.689,8.458,1.763,12.358
		s-8.458,4.689-12.358,1.763c-12.734-9.549-30.798-6.969-40.349,5.763c-12.666,16.893-9.241,40.854,7.651,53.522
		c10.607,7.957,23.941,11.375,37.068,9.5c13.127-1.875,24.972-8.888,32.927-19.496c21.439-28.589,15.644-69.145-12.944-90.586
		c-36.71-27.531-88.788-20.089-116.319,16.621c-35.077,46.881-25.586,113.309,21.216,148.491
		c59.58,44.561,143.985,32.502,188.703-26.961c1.893-2.522,4.987-3.844,8.118-3.466c3.131,0.378,5.822,2.397,7.06,5.297
		s0.835,6.241-1.058,8.763C286.392,353.867,241.123,376.445,193.082,376.353z"/>
	<g>
		<circle style="fill:#2C2F38;" cx="423.724" cy="17.655" r="17.655"/>
		<circle style="fill:#2C2F38;" cx="494.345" cy="17.655" r="17.655"/>
	</g>
</g>
<g>
</g>
<g>
</g>
<g>
</g>
<g>
</g>
<g>
</g>
<g>
</g>
<g>
</g>
<g>
</g>
<g>
</g>
<g>
</g>
<g>
</g>
<g>
</g>
<g>
</g>
<g>
</g>
<g>
</g>
</svg>
