<svg xmlns="http://www.w3.org/2000/svg" xmlns:xlink="http://www.w3.org/1999/xlink" width="250" height="72" viewBox="0 0 250 72">
  <title>
    logo-white-growwithgoogle
  </title>
  <defs>
    <polygon id="a" points="0 .006 22.695 .006 22.695 23.563 0 23.563"/>
  </defs>
  <g fill="none" fill-rule="evenodd" transform="translate(0 23)">
    <g transform="translate(0 2)"/>
    <path fill="#FFFFFF" d="M23 14.931c0 3.21-.943 5.765-2.828 7.666C18.051 24.866 15.265 26 11.816 26c-3.305 0-6.101-1.154-8.389-3.462C1.14 20.23-.003 17.384 0 14c0-3.38 1.143-6.225 3.427-8.538C5.712 3.15 8.508 1.996 11.816 2c1.62-.01 3.228.296 4.734.9 1.483.598 2.701 1.444 3.654 2.535l-2.097 2.118a7.056 7.056 0 0 0-2.716-2.005 8.9 8.9 0 0 0-3.574-.722c-2.478 0-4.575.865-6.292 2.596-1.694 1.755-2.542 3.949-2.542 6.58 0 2.633.848 4.826 2.542 6.581 1.714 1.731 3.811 2.597 6.292 2.597 2.267 0 4.152-.642 5.656-1.927 1.504-1.284 2.373-3.05 2.606-5.296h-8.264v-2.76H22.84c.103.573.157 1.153.159 1.734M28.035 25H25V9.444h2.904v2.54h.127c.31-.826.944-1.53 1.902-2.11.958-.582 1.899-.873 2.823-.874.88 0 1.628.127 2.244.382l-.924 2.825c-.375-.148-.968-.222-1.78-.223-1.145 0-2.14.444-2.987 1.333a4.366 4.366 0 0 0-1.271 3.111L28.035 25zM37.92 17.002c0 1.615.487 2.923 1.46 3.924 1.895 1.93 5.051 2.012 7.05.182.065-.059.127-.12.188-.182.974-1.001 1.46-2.31 1.46-3.924 0-1.595-.486-2.894-1.46-3.898-.994-1.023-2.2-1.535-3.616-1.535s-2.622.512-3.618 1.535c-.976 1.002-1.463 2.301-1.463 3.898zm-2.92 0c0-2.31.751-4.22 2.254-5.733C38.777 9.756 40.694 9 43 9c2.308 0 4.213.756 5.715 2.269 1.523 1.51 2.284 3.42 2.284 5.733 0 2.33-.762 4.24-2.286 5.733C47.211 24.245 45.307 25 43.002 25c-2.304 0-4.22-.756-5.747-2.269C35.752 21.22 35 19.31 35 17.001z"/>
    <polygon fill="#FFFFFF" points="76 10 70.918 24.994 67.894 24.994 63.967 13.494 60.074 25 57.082 25 52 10.006 55.089 10.006 58.595 21.322 58.627 21.322 62.52 10.006 65.577 10.006 69.47 21.322 69.502 21.322 72.972 10.006"/>
    <polygon fill="#FFFFFF" points="106 10 100.918 24.994 97.894 24.994 93.968 13.494 90.075 25 87.082 25 82 10.006 85.089 10.006 88.595 21.322 88.627 21.322 92.52 10.006 95.577 10.006 99.47 21.322 99.502 21.322 102.972 10.006"/>
    <path fill="#FFFFFF" d="M108.578 25h2.836V9.434h-2.836V25zM112 4.065c-.003 1.138-.9 2.059-2.004 2.057-1.105-.003-1.998-.927-1.996-2.065.002-1.138.9-2.06 2.004-2.057a1.97 1.97 0 0 1 1.41.604c.383.383.595.912.586 1.461zM121.294 24.999c-1.29 0-2.361-.38-3.211-1.142-.85-.76-1.288-1.82-1.31-3.179v-8.456H114V9.63h2.772V5h2.969v4.63h3.872v2.592h-3.872v7.53c0 1.009.204 1.693.613 2.052.371.346.869.54 1.387.54.234 0 .467-.026.694-.077.216-.048.426-.116.629-.201l.936 2.53a8.312 8.312 0 0 1-2.706.403M127 2h2.967v7.26l-.125 2.184h.125c.45-.772 1.144-1.414 2.079-1.928a5.982 5.982 0 0 1 2.918-.771c1.935 0 3.426.551 4.472 1.654 1.046 1.103 1.567 2.67 1.564 4.702V25h-2.966v-9.316c0-2.826-1.258-4.24-3.773-4.24-1.204 0-2.22.497-3.047 1.493a5.287 5.287 0 0 0-1.243 3.486v8.576H127V2zM162.077 15.426v-3.551h11.733c.13.717.194 1.446.19 2.176 0 2.662-.72 5.96-3.035 8.304-2.252 2.377-5.133 3.645-8.949 3.645C154.945 26 149 20.167 149 13s5.945-13 13.016-13c3.911 0 6.697 1.553 8.793 3.582l-2.472 2.503c-1.502-1.426-3.535-2.535-6.32-2.535-5.162 0-9.199 4.21-9.199 9.445 0 5.236 4.033 9.445 9.2 9.445 3.347 0 5.255-1.361 6.477-2.6.995-1.006 1.649-2.451 1.903-4.427l-8.32.013zM188.279 17c0-2.879-2.213-4.853-4.78-4.853-2.565 0-4.78 1.97-4.78 4.853 0 2.848 2.214 4.853 4.78 4.853 2.568 0 4.78-2.004 4.78-4.853M192 17c0 4.605-3.817 8-8.5 8-4.684 0-8.5-3.393-8.5-8 0-4.636 3.816-8 8.5-8 4.683 0 8.5 3.364 8.5 8M206.279 17c0-2.879-2.213-4.853-4.78-4.853-2.565 0-4.78 1.97-4.78 4.853 0 2.848 2.214 4.853 4.78 4.853 2.568 0 4.78-2.004 4.78-4.853M210 17c0 4.605-3.817 8-8.5 8-4.684 0-8.5-3.393-8.5-8 0-4.636 3.816-8 8.5-8 4.683 0 8.5 3.364 8.5 8M223.776 17.314c0-2.918-1.96-5.052-4.458-5.052-2.529 0-4.647 2.134-4.647 5.052 0 2.886 2.118 4.989 4.647 4.989 2.496-.002 4.46-2.103 4.46-4.99h-.002zM227 9.5v14.872c0 6.117-3.635 8.627-7.935 8.627-4.047 0-6.48-2.696-7.398-4.895l3.193-1.317c.57 1.348 1.96 2.95 4.199 2.95 2.75 0 4.457-1.695 4.457-4.863v-1.192h-.123c-.822 1.003-2.403 1.882-4.395 1.882-4.172 0-7.998-3.608-7.998-8.251C211 12.638 214.828 9 218.998 9c1.992 0 3.573.879 4.395 1.852h.123V9.504L227 9.5z"/>
    <polygon fill="#FFFFFF" points="229 25 233 25 233 1 229 1"/>
    <path fill="#FFFFFF" d="M238.546 16.753l7.269-2.97c-.401-1-1.602-1.697-3.019-1.697-1.815 0-4.342 1.576-4.25 4.667zm8.532 2.878l2.767 1.818c-.894 1.302-3.05 3.551-6.776 3.551-4.62 0-8.069-3.515-8.069-8 0-4.758 3.48-8 7.67-8 4.219 0 6.283 3.303 6.96 5.09l.37.909-10.863 4.42c.832 1.606 2.126 2.424 3.943 2.424 1.817 0 3.074-.878 3.998-2.212z"/>
  </g>
</svg>
